<?xml version="1.0" encoding="UTF-8"?>
<svg id="Layer_1" xmlns="http://www.w3.org/2000/svg" version="1.1" viewBox="0 0 486.991 486.991">
  <!-- Generator: Adobe Illustrator 29.8.1, SVG Export Plug-In . SVG Version: 2.1.1 Build 2)  -->
  <defs>
    <style>
      .st0 {
        fill: #fff;
      }

      .st1 {
        fill: #fab93b;
      }

      .st2 {
        fill: #e98f24;
      }

      .st3 {
        fill: #f5ad32;
      }

      .st4 {
        fill: #fbe53f;
      }

      .st5 {
        fill: #fbcf2d;
      }

      .st6 {
        fill: #a1b9ca;
      }

      .st7 {
        fill: #cfd5dc;
      }

      .st8 {
        fill: #d67028;
      }
    </style>
  </defs>
  <circle class="st6" cx="243.495" cy="243.495" r="243.495"/>
  <g>
    <path class="st7" d="M467.058,317.9c-.134,13.285-4.143,31.458-10.335,43.264-15.078,28.746-41.776,57.139-62.416,73.514-76.449,60.654-184.402,69.257-268.048,22.283,64.817,19.211,130.587-8.97,179.894-52.897,4.376-3.899,17.396-21.098,20.562-21.541,14.014-1.962,44.153-8.467,53.853-11.097,24.098-6.534,64.104-20.988,79.31-41.45,2.908-3.914,4.098-8.512,7.18-12.076Z"/>
    <path class="st0" d="M238.592,239.569c.303,2.266.506,4.226.653,6.528-29.956,1.407-60.059,2.149-89.754,6.528-28.266,4.168-140.132,25.977-109.99,73.762,23.246,36.852,142.244,50.273,183.099,51.568,50.571,1.603,195.587-6.755,226.181-52.221,23.92-35.547-44.786-58.238-68.866-64.623-41.292-10.95-84.973-13.767-127.615-14.361.16-2.526.285-4.622.653-7.18,50.882,1.259,105.608,5.624,153.725,22.847,25.02,8.955,60.687,24.922,60.38,55.485-3.082,3.564-4.272,8.163-7.18,12.076-15.206,20.462-55.257,34.754-79.31,41.45-9.976,2.777-40.471,9.3-53.853,11.097-78.056,7.353-165.693,8.502-240.542-17.625-24.352-8.5-54.722-22.363-64.95-47.651.244-31.208,35.37-46.504,61.033-55.485,49.013-17.151,104.643-21.305,156.336-22.194Z"/>
    <path class="st4" d="M241.973,189.306c.858.157,1.095,1.099,1.958,1.306l-.653,139.364c-60.11-4.243-18.275-18.582-6.969-45.145,0,0,1.123-5.915,2.4-18.499,6.239-61.479-17.775-19.323-48.286-83.386,7.592,10.094,37.865,14.383,51.549,6.359Z"/>
    <g>
      <path class="st7" d="M326.715,382.523c-2.752,1.625-16.186,17.642-20.562,21.541-49.308,43.927-115.077,72.108-179.894,52.897-34.301-16.511-76.64-58.069-94.743-94.809-6.058-12.295-10.399-31.322-10.293-44.905,10.228,25.288,40.598,39.151,64.95,47.651,74.849,26.126,162.486,24.978,240.542,17.625Z"/>
      <path class="st0" d="M49.618,360.982c28.176,14.804,59.019,23.736,90.081,30.68,3.519,12.781-1.575,37.941-18.93,35.902-5.928-.696-38.903-24.748-45.04-30.027-10.806-9.294-23.348-22.069-26.11-36.555Z"/>
    </g>
    <path class="st0" d="M238.592,266.332c-.523,6.025-1.142,11.96-1.958,17.951-.603,1.03-1.182.773-1.958.979-7.416,1.965-25.182.945-34.27,1.958-24.139,2.692-69.905,10.202-88.775,25.458-22.495,18.186,4.596,29.237,20.888,34.596,56.63,18.626,185.717,21.034,239.563-5.222,46.555-22.701-21.306-43.856-41.124-48.304-24.666-5.536-51.107-7.289-76.373-8.486-1.305-6.231-1.756-12.602-2.285-18.93,45.72,1.421,94.89,3.917,138.711,17.625,22.005,6.883,49.581,18.377,57.769,41.777-30.594,45.465-175.61,53.824-226.181,52.221-40.855-1.295-159.853-14.716-183.099-51.568,1.437,1.21,2.183-.655,2.611-1.632,10.966-25.027,33.402-33.864,58.422-41.45,43.754-13.267,92.52-15.686,138.059-16.972Z"/>
    <path class="st7" d="M239.245,246.097c.437,6.851-.061,13.415-.653,20.236-45.538,1.286-94.305,3.705-138.059,16.972-25.02,7.586-47.456,16.423-58.422,41.45-.428.977-1.174,2.842-2.611,1.632-30.142-47.785,81.724-69.594,109.99-73.762,29.695-4.379,59.799-5.121,89.754-6.528Z"/>
    <path class="st7" d="M448.781,325.733c-8.189-23.4-35.765-34.894-57.769-41.777-43.822-13.708-92.991-16.204-138.711-17.625-.572-6.854-.435-12.726,0-19.583,42.642.594,86.322,3.411,127.615,14.361,24.08,6.386,92.786,29.076,68.866,64.623Z"/>
    <g>
      <path class="st5" d="M299.323,183.694c-18.422,14.246-43.303,32.957-46.6,55.875-.452,3.14-.537,5.583-.771,8.98-.405,5.869-.386,11.759.105,17.621.534,6.381.982,12.807,2.298,19.092,25.266,1.197,51.707,2.95,76.373,8.486,19.818,4.448,87.678,25.603,41.124,48.304-53.846,26.256-182.933,23.848-239.563,5.222-16.293-5.359-43.383-16.41-20.888-34.596,18.87-15.256,64.637-22.765,88.775-25.458,9.088-1.014,28.371-.424,35.787-2.389.529,1.958-20.968,32.655-21.753,34.048-4.993,8.869,24.316,10.742,28.721,11.097l.653-139.364c5.51,1.318,10.828.277,16.319,0,3.157-.159,6.011,1.425,9.465,0,1.748-.721,4.177-5.473,4.896-5.875,1.457-.815,22.833-.451,25.059-1.043Z"/>
      <path class="st5" d="M243.162,339.441c-.208-1.773-.473-8.075.979-9.139,2.446-1.791,36.116.1,32.964-11.423-1.744-3.411-6.526-2.475-8.812-3.59-3.453-1.684-7.742-10.449-8.812-14.361,11.982,1.205,24.306,1.778,35.575,6.528,12.497,5.267,19.265,14.004,4.569,22.847-15.502,9.328-38.831,8.433-56.464,9.139Z"/>
      <path class="st5" d="M151.449,304.192c7.332-.656-4.195,6.105-5.548,8.159-6.056,9.191,1.485,17.679,9.465,22.52,5.77,3.501,15.864,4.157,18.277,9.791-10.533-2.717-52.328-13.29-38.839-30.353,1.256-1.588,15.082-9.978,16.645-10.118Z"/>
    </g>
  </g>
  <g>
    <path class="st1" d="M382.142,43.301c2.218,1.535,3.684,2.599,5.811,4.159l-71.325,48.561c-3.365,2.891,2.114,4.288,2.282,4.564.091.15.14,1.527,1.304,3.26-3.427-1.533-4.202,10.145-5.216,13.366-.73,2.318-2.341,6.264-3.912,8.15-4.758-6.186-9.082-12.634-13.692-18.908,13.285-10.66,9.025-20.653-6.194-25.428-1.563-.491-12.483-3.578-12.062,0-1.264-1.639-7.254-10.171-8.476-10.432,17.078-30.282,32.155,15.972,37.489,16.3.483.03.978.326.978.326l2.282,4.238,70.73-48.157Z"/>
    <path class="st2" d="M387.953,47.46c1.396,1.044-.979-.786,4.17,3.148l-73.213,49.978c-.168-.276-5.647-1.673-2.282-4.564l71.325-48.561Z"/>
    <path class="st1" d="M382.142,43.301l-70.73,48.157-2.282-4.238,7.172-5.542,60.616-41.902c2.176,1.511,2.62,1.689,5.224,3.526Z"/>
    <path class="st1" d="M187.86,147.529c-22.698,7.054,9.439,40.302,5.216,7.824,8.65,12.162,17.338,24.417,26.08,36.511-6.239,1.61-13.583,5.582-19.56,3.26-4.84-6.546-9.858-13.43-14.344-20.212-5.436-8.217-15.875-17.469-6.194-26.732,1.606-1.537,5.792-2.766,6.846-3.912-.003,1.374,1.213,2.254,1.956,3.26Z"/>
    <path class="st8" d="M228.284,101.89c8.693,11.639,16.953,24.011,25.428,35.859,4.963,6.939,10.128,13.881,14.996,20.864,2.728,3.912,5.868,7.837,8.476,11.736,1.566,2.341,8.686,12.421,8.476,14.344-.029.262-1.511,2.469-1.956,3.912-6.387-7.864-12.964-15.936-18.908-24.124-5.471-7.537-10.855-15.248-16.3-22.82-8.753-12.172-16.968-24.565-26.08-36.511-1.716-2.25-4.087-8.215-6.52-9.78,1.086-.662,2.808-2.112,3.26-3.26,3.047,2.427,6.822,6.692,9.128,9.78Z"/>
    <path class="st8" d="M251.755,88.85c7.619,11.229,15.504,22.272,23.472,33.251,7.205,9.928,14.007,20.296,21.516,29.992,1.315,1.698,8.406,12.122,9.128,12.388l-2.608,4.564c-.302-.702-8.181-9.442-9.78-11.736-3.27-4.691-7.136-9.064-10.432-13.692-4.342-6.098-8.65-12.191-13.04-18.256-8.125-11.225-15.639-22.929-24.124-33.903-2.006-2.595-5.066-8.615-7.172-10.432l4.564-3.26c.284,1.883,7.008,8.92,8.476,11.084Z"/>
    <path class="st8" d="M206.768,118.189c8.158,11.993,17.024,23.417,25.428,35.207,5.447,7.643,10.739,15.243,16.3,22.82,3.389,4.617,11.092,18.842,13.692,21.516-.765,1.989-3.013,2.352-3.912,3.26-3.703-4.979-8.981-15.365-13.692-18.908-5.105-8.769-11.733-16.562-17.604-24.776-7.736-10.822-15.93-24.957-24.776-34.555-.562-.609-2.52-4.314-3.26-4.564l2.608-5.216c.296.55,4.481,4.135,5.216,5.216Z"/>
    <path class="st8" d="M270.663,70.594c1.222.261,7.212,8.793,8.476,10.432,6.308,8.18,12.113,17.069,18.256,25.428,4.61,6.274,8.934,12.722,13.692,18.908,1.354,1.761,7.785,12.096,8.476,12.388l-1.956,5.216c-1.114-1.749-4.826-5.431-6.52-7.824-5.989-8.458-12.837-16.408-18.908-24.776-7.255-9.999-13.79-20.289-21.516-29.992-1.133-1.423-3.739-7.021-4.564-7.824,1.36-.793,2.749-2.343,4.564-1.956Z"/>
    <path class="st8" d="M191.12,141.661c6.329,7.604,12.987,18.411,18.908,26.732,5.159,7.249,10.332,14.381,15.648,21.516,2.691,3.613,4.937,9.019,7.824,12.388-.8,1.682-3.025,2.793-3.912,3.912-2.72-5.262-7.006-9.604-10.432-14.344-8.742-12.094-17.43-24.349-26.08-36.511-1.801-2.532-3.342-5.285-5.216-7.824-.743-1.006-1.959-1.886-1.956-3.26.168-.183,1.922-4.318,1.956-4.564,1.894-.437,2.337.847,3.26,1.956Z"/>
    <path class="st1" d="M198.944,118.189c.74.25,2.698,3.954,3.26,4.564-2.457,2.118-1.942-.543-5.868,0-7.895,1.092-7.725,10.532-1.304,11.084-2.243,2.378-4.482,3.899-3.912,7.824-.923-1.109-1.366-2.393-3.26-1.956.43-3.119-3.027-5.567-3.26-8.802-.491-6.802,7.933-14.875,14.344-12.714Z"/>
    <path class="st2" d="M311.086,135.141c1.694,2.393,5.406,6.075,6.52,7.824,3.124,4.905,4.943,8.711,1.956,14.67-1.699,3.389-9.9,8.244-13.692,6.846-.722-.266-7.813-10.69-9.128-12.388,2.72-1.741,12.809-16.557,14.344-16.952Z"/>
    <path class="st2" d="M320.214,103.846c4.522,6.732,13.803,15.71,12.388,23.798-.718,4.102-9.01,11.809-13.04,10.106-.691-.292-7.122-10.627-8.476-12.388,1.571-1.886,3.182-5.832,3.912-8.15,1.014-3.22,1.789-14.899,5.216-13.366Z"/>
    <path class="st1" d="M297.395,106.454c-6.143-8.359-11.948-17.247-18.256-25.428-.421-3.578,10.498-.491,12.062,0,15.219,4.774,19.479,14.768,6.194,25.428Z"/>
    <path class="st2" d="M264.795,164.481c5.944,8.188,12.521,16.26,18.908,24.124-2.917,9.468-12.999,17.887-21.516,9.128-2.6-2.674-10.303-16.898-13.692-21.516,5.733-2.824,10.429-10.584,16.3-11.736Z"/>
    <path class="st2" d="M244.583,182.084c4.711,3.543,9.989,13.929,13.692,18.908-9.256,9.347-14.563,13.222-24.776,1.304-2.887-3.368-5.132-8.775-7.824-12.388,5.82-2.725,11.616-5.602,16.626-9.78.636.83,1.468,1.343,2.282,1.956Z"/>
    <path class="st2" d="M229.588,206.208c-14.584,18.401-21.085.962-29.992-11.084,5.976,2.322,13.32-1.65,19.56-3.26,3.426,4.74,7.712,9.081,10.432,14.344Z"/>
    <path class="st1" d="M187.86,147.529c1.874,2.539,3.415,5.292,5.216,7.824,4.223,32.478-27.914-.77-5.216-7.824Z"/>
    <path class="st1" d="M248.495,141.661l-16.3,11.736c-8.403-11.791-17.27-23.214-25.428-35.207l15.648-13.04c9.111,11.946,17.327,24.339,26.08,36.511Z"/>
    <path class="st1" d="M245.887,91.458c8.485,10.974,15.998,22.678,24.124,33.903-3.646,5.184-10.953,8.723-16.3,12.388-8.474-11.848-16.735-24.22-25.428-35.859,5.232-3.842,11.279-9.233,17.604-10.432Z"/>
    <path class="st1" d="M269.839,171.225c-5.871,1.152-13.088,6.079-18.821,8.904-5.561-7.577-13.375-19.089-18.821-26.732l16.3-11.736c5.445,7.572,15.872,22.027,21.343,29.564Z"/>
    <path class="st1" d="M293.483,157.309l-16.3,13.04c-4.868-6.982-18.508-25.66-23.472-32.599,5.346-3.665,12.654-7.204,16.3-12.388,4.39,6.065,19.13,25.85,23.472,31.947Z"/>
    <path class="st1" d="M270.663,80.374c7.725,9.703,14.26,19.992,21.516,29.992l-16.952,11.736c-7.968-10.979-15.853-22.023-23.472-33.251,3.812-5.288,12.776-7.377,18.908-8.476Z"/>
    <path class="st1" d="M311.086,135.141c-1.535.394-11.624,15.211-14.344,16.952-7.508-9.695-14.311-20.063-21.516-29.992l16.952-11.736c6.071,8.367,12.919,16.318,18.908,24.776Z"/>
    <path class="st1" d="M202.204,122.753c8.846,9.598,17.04,23.734,24.776,34.555l-16.952,11.084c-5.921-8.32-12.578-19.128-18.908-26.732-.57-3.925,1.669-5.446,3.912-7.824,7.507.645,8.496-9.604,1.304-11.084,3.926-.543,3.411,2.118,5.868,0Z"/>
    <path class="st1" d="M244.583,182.084c-.814-.612-13.088,5.099-18.908,7.824-5.315-7.135-10.489-14.267-15.648-21.516l16.952-11.084c5.871,8.214,12.499,16.007,17.604,24.776Z"/>
    <g>
      <path class="st1" d="M238.716,81.026c2.106,1.817,5.166,7.837,7.172,10.432-6.325,1.199-12.372,6.59-17.604,10.432-2.306-3.088-6.081-7.353-9.128-9.78,1.797-4.562.346-8.958,6.194-12.388,5.003-2.935,9.083-2.391,13.366,1.304Z"/>
      <path class="st0" d="M228.61,84.286c10.037-2.997,9.824,13.369,0,10.432-3.913-1.17-3.912-9.264,0-10.432Z"/>
    </g>
    <g>
      <path class="st1" d="M266.099,72.55c.825.803,3.431,6.4,4.564,7.824-6.132,1.098-15.096,3.188-18.908,8.476-1.468-2.164-8.192-9.2-8.476-11.084-1.384-9.194,14.608-13.211,22.82-5.216Z"/>
      <path class="st0" d="M253.385,71.246c8.729-1.363,8.71,13.232-.652,11.084-5.321-1.221-4.286-10.313.652-11.084Z"/>
    </g>
    <g>
      <path class="st1" d="M215.896,95.37c2.433,1.565,4.803,7.529,6.52,9.78l-15.648,13.04c-.735-1.081-4.92-4.666-5.216-5.216-6.111-11.35,6.516-22.639,14.344-17.604Z"/>
      <path class="st0" d="M209.05,99.934c7.926-1.954,9.804,8.173,4.564,10.432-7.683,3.313-11.378-8.752-4.564-10.432Z"/>
    </g>
    <path class="st0" d="M196.336,122.753c7.192,1.48,6.203,11.729-1.304,11.084-6.421-.552-6.591-9.991,1.304-11.084Z"/>
    <g>
      <path class="st2" d="M293.483,157.309c1.599,2.294,9.478,11.034,9.78,11.736,2.968,6.894-2.355,16.84-9.78,17.604-3.093.318-5.08-1.215-7.824-1.956.21-1.922-6.91-12.003-8.476-14.344l16.3-13.04Z"/>
      <path class="st0" d="M181.863,149.471c9.308-1.691,7.394,14.561-1.304,10.432-4.6-2.184-3.022-9.646,1.304-10.432Z"/>
    </g>
  </g>
  <path class="st3" d="M262.164,348.113c0-1.571,90.182-5.782,90.244-24.329.019-5.576-7.94-11.715-21.672-16.922-15.959-6.051-19.706-8.715-7.263-6.068,27.492,5.849,45.792,15.412,45.433,23.704-.521,12.045-55.616,23.034-84.604,24.216-9.818.4-22.139.97-22.139-.601Z"/>
  <path class="st3" d="M267.744,329.989c0-.581,46.242-3.356,46.538-10.198.296-6.842-45.393-14.09-45.465-14.58s9.372.406,9.372.406c27.951,1.21,50.37,7.738,50.074,14.58-.296,6.842-23.195,11.408-51.146,10.198,0,0-9.372.175-9.372-.406Z"/>
</svg>